<?xml version="1.0" encoding="UTF-8" standalone="no"?>
<!DOCTYPE svg PUBLIC "-//W3C//DTD SVG 1.1//EN"
 "http://www.w3.org/Graphics/SVG/1.1/DTD/svg11.dtd">
<!-- Generated by graphviz version 2.40.1 (20161225.0304)
 -->
<!-- Title: dependencies Pages: 1 -->
<svg width="504pt" height="284pt"
 viewBox="0.00 0.00 504.00 284.00" xmlns="http://www.w3.org/2000/svg" xmlns:xlink="http://www.w3.org/1999/xlink">
<g id="graph0" class="graph" transform="scale(1 1) rotate(0) translate(4 280)">
<title>dependencies</title>
<polygon fill="#ffffff" stroke="transparent" points="-4,4 -4,-280 500,-280 500,4 -4,4"/>
<text text-anchor="start" x="227.0091" y="-42.4" font-family="sans-serif" font-weight="bold" font-size="14.00" fill="#000000">Legend</text>
<polygon fill="#ffffb3" stroke="transparent" points="14,-10 14,-30 34,-30 34,-10 14,-10"/>
<text text-anchor="start" x="37.629" y="-15.4" font-family="sans-serif" font-size="14.00" fill="#000000"> &#160;Declarations</text>
<polygon fill="#8dd3c7" stroke="transparent" points="127,-10 127,-30 147,-30 147,-10 127,-10"/>
<text text-anchor="start" x="150.7251" y="-15.4" font-family="sans-serif" font-size="14.00" fill="#000000"> &#160;Module</text>
<polygon fill="#80b1d3" stroke="transparent" points="213,-10 213,-30 233,-30 233,-10 213,-10"/>
<text text-anchor="start" x="236.7812" y="-15.4" font-family="sans-serif" font-size="14.00" fill="#000000"> &#160;Bootstrap</text>
<polygon fill="#fdb462" stroke="transparent" points="310,-10 310,-30 330,-30 330,-10 310,-10"/>
<text text-anchor="start" x="333.6732" y="-15.4" font-family="sans-serif" font-size="14.00" fill="#000000"> &#160;Providers</text>
<polygon fill="#fb8072" stroke="transparent" points="406,-10 406,-30 426,-30 426,-10 406,-10"/>
<text text-anchor="start" x="429.7258" y="-15.4" font-family="sans-serif" font-size="14.00" fill="#000000"> &#160;Exports</text>
<g id="clust1" class="cluster">
<title>cluster_AppModule</title>
<polygon fill="none" stroke="#000000" stroke-dasharray="1,5" points="154.5,-70 154.5,-268 341.5,-268 341.5,-70 154.5,-70"/>
</g>
<g id="clust2" class="cluster">
<title>cluster_AppModule_declarations</title>
<polygon fill="none" stroke="#000000" points="162.5,-78 162.5,-130 333.5,-130 333.5,-78 162.5,-78"/>
</g>
<g id="clust7" class="cluster">
<title>cluster_AppModule_bootstrap</title>
<polygon fill="none" stroke="#000000" points="202.5,-208 202.5,-260 290.5,-260 290.5,-208 202.5,-208"/>
</g>
<!-- HomePage -->
<g id="node1" class="node">
<title>HomePage</title>
<polygon fill="#ffffb3" stroke="#000000" points="325.4248,-122 247.5752,-122 247.5752,-86 325.4248,-86 325.4248,-122"/>
<text text-anchor="middle" x="286.5" y="-99.8" font-family="Times,serif" font-size="14.00" fill="#000000">HomePage</text>
</g>
<!-- AppModule -->
<g id="node3" class="node">
<title>AppModule</title>
<polygon fill="#8dd3c7" stroke="#000000" points="288.1571,-187 285.1571,-191 264.1571,-191 261.1571,-187 204.8429,-187 204.8429,-151 288.1571,-151 288.1571,-187"/>
<text text-anchor="middle" x="246.5" y="-164.8" font-family="Times,serif" font-size="14.00" fill="#000000">AppModule</text>
</g>
<!-- HomePage&#45;&gt;AppModule -->
<g id="edge1" class="edge">
<title>HomePage&#45;&gt;AppModule</title>
<path fill="none" stroke="#000000" d="M268.0582,-122.1061C268.0582,-122.1061 268.0582,-140.991 268.0582,-140.991"/>
<polygon fill="#000000" stroke="#000000" points="264.5583,-140.9909 268.0582,-150.991 271.5583,-140.991 264.5583,-140.9909"/>
</g>
<!-- MyApp -->
<g id="node2" class="node">
<title>MyApp</title>
<polygon fill="#ffffb3" stroke="#000000" points="230.0529,-122 170.9471,-122 170.9471,-86 230.0529,-86 230.0529,-122"/>
<text text-anchor="middle" x="200.5" y="-99.8" font-family="Times,serif" font-size="14.00" fill="#000000">MyApp</text>
</g>
<!-- MyApp&#45;&gt;AppModule -->
<g id="edge2" class="edge">
<title>MyApp&#45;&gt;AppModule</title>
<path fill="none" stroke="#000000" d="M217.4737,-122.1061C217.4737,-122.1061 217.4737,-140.991 217.4737,-140.991"/>
<polygon fill="#000000" stroke="#000000" points="213.9738,-140.9909 217.4737,-150.991 220.9738,-140.991 213.9738,-140.9909"/>
</g>
<!-- IonicApp  -->
<g id="node4" class="node">
<title>IonicApp </title>
<polygon fill="#80b1d3" stroke="#000000" points="282.8734,-252 210.1266,-252 210.1266,-216 282.8734,-216 282.8734,-252"/>
<text text-anchor="middle" x="246.5" y="-229.8" font-family="Times,serif" font-size="14.00" fill="#000000">IonicApp </text>
</g>
<!-- AppModule&#45;&gt;IonicApp  -->
<g id="edge3" class="edge">
<title>AppModule&#45;&gt;IonicApp </title>
<path fill="none" stroke="#000000" stroke-dasharray="1,5" d="M246.5,-187.1061C246.5,-187.1061 246.5,-205.991 246.5,-205.991"/>
<polygon fill="#000000" stroke="#000000" points="243.0001,-205.9909 246.5,-215.991 250.0001,-205.991 243.0001,-205.9909"/>
</g>
</g>
</svg>
